<svg xmlns="http://www.w3.org/2000/svg" fill="none" viewBox="-0.5 -0.5 200 200"><g id="Product-We-got-a-problem-01"><g id="color 2"><path id="Subtract" fill="#fecfc4" fill-rule="evenodd" d="M49.949000000000005 6.747095 70.68480000000001 42.6855a3.5422000000000002 3.5422000000000002 0 0 1 -3.06261 5.3093200000000005l-41.49349 0.0029850000000000002a3.541205 3.541205 0 0 1 -3.06261 -5.312305L43.805870000000006 6.747095a3.5491650000000003 3.5491650000000003 0 0 1 6.14313 0Zm-3.07455 32.083774999999996a1.3134000000000001 1.3134000000000001 0 1 0 0 -2.6268000000000002 1.3134000000000001 1.3134000000000001 0 0 0 0 2.6268000000000002Z" clip-rule="evenodd" stroke-width="1"></path><path id="Vector" fill="#fecfc4" d="M158.434845 38.33536c-7.485385 -1.417875 -14.6265 2.985 -15.92 9.8306 -0.43979 2.3979500000000002 -0.12935 4.872515 0.88953 7.087385l-3.232755 5.2934 6.12522 -1.24773a14.6066 14.6066 0 0 0 7.4475750000000005 3.81881c7.485385 1.417875 14.6265 -2.985 15.92 -9.829604999999999 1.30345 -6.84361 -3.724285 -13.534984999999999 -11.229569999999999 -14.952860000000001Z" stroke-width="1"></path><path id="Vector_2" fill="#fecfc4" d="M64.351625 83.96805a1.24773 1.24773 0 1 0 0 -2.49546 1.24773 1.24773 0 0 0 0 2.49546Z" stroke-width="1"></path><path id="Vector_3" fill="#fecfc4" d="M75.581195 93.49616999999999a1.24773 1.24773 0 1 1 -1.24773 -1.24773 1.25768 1.25768 0 0 1 1.24773 1.24773Z" stroke-width="1"></path><path id="Vector_4" fill="#fecfc4" d="M87.244585 84.42177000000001a1.24773 1.24773 0 1 1 -1.24773 -1.24773 1.25967 1.25967 0 0 1 1.24773 1.24773Z" stroke-width="1"></path><path id="Vector_5" fill="#fecfc4" d="M100.06118 95.083195a1.246735 1.246735 0 1 1 -1.24773 -1.246735 1.25768 1.25768 0 0 1 1.24773 1.246735Z" stroke-width="1"></path><path id="Vector_6" fill="#fecfc4" d="M110.949465 84.42177000000001a1.2537 1.2537 0 0 1 -0.77013 1.153205 1.2487249999999999 1.2487249999999999 0 1 1 -0.47759999999999997 -2.4009349999999996 1.260665 1.260665 0 0 1 1.24773 1.24773Z" stroke-width="1"></path><path id="Vector_7" fill="#fecfc4" d="M124.56007000000001 85.14016a1.2537 1.2537 0 0 1 -0.77013 1.153205 1.2487249999999999 1.2487249999999999 0 1 1 -0.47759999999999997 -2.4009349999999996 1.25967 1.25967 0 0 1 1.24773 1.24773Z" stroke-width="1"></path><path id="Vector_8" fill="#fecfc4" d="M138.37863000000002 84.42177000000001a1.24773 1.24773 0 1 0 0 -2.494465 1.24773 1.24773 0 0 0 0 2.494465Z" stroke-width="1"></path><path id="Vector_9" fill="#fecfc4" d="M132.952895 96.61449999999999a1.2537 1.2537 0 0 1 -0.77013 1.153205 1.2487249999999999 1.2487249999999999 0 1 1 -0.47759999999999997 -2.4009349999999996 1.236785 1.236785 0 0 1 1.24773 1.24773Z" stroke-width="1"></path></g><g id="color 1"><path id="Vector_10" fill="#6153bd" d="M45.486425000000004 78.42988v6.124225c0.86963 -0.359195 1.791 -0.737295 2.76013 -1.1342999999999999v-3.12828a8.896295 8.896295 0 0 1 -2.76013 -1.861645Z" stroke-width="1"></path><path id="Vector_11" fill="#6153bd" d="M45.486425000000004 91.75691v102.24918500000001h2.76013V90.036555c-0.86963 0.5482450000000001 -1.8705999999999998 1.1910150000000002 -2.76013 1.720355Z" stroke-width="1"></path><path id="Vector_12" fill="#6153bd" d="m102.95264999999999 70.75445 -1.5114049999999999 2.15517 0.037809999999999996 -1.833785 1.473595 -0.32138500000000003Z" stroke-width="1"></path><path id="Vector_13" fill="#6153bd" d="m141.13876000000002 76.9135 0.45372 -0.28357499999999997c0.0995 -0.051739999999999994 4.014825 -1.4128999999999998 4.0794999999999995 -1.43678 -2.568095 -1.28156 -4.816795 -0.71441 -4.53322 1.720355Z" stroke-width="1"></path><path id="Vector_14" fill="#6153bd" d="m149.342535 82.49346 -2.587 0.90744c1.73926 0.71839 3.4825 0.62088 3.95214 -0.834805l-1.36514 -0.07263499999999999Z" stroke-width="1"></path><path id="Vector_15" fill="#6153bd" d="M94.54092 191.18925000000002a27.739605 27.739605 0 0 0 -1.43678 -6.4675 22.454165 22.454165 0 0 1 -12.34397 0c-5.34912 1.55021 -11.455435 6.29437 -14.65038 9.28136 10.737045 0 17.845325 -0.094525 26.01129 -0.11343a2.4198399999999998 2.4198399999999998 0 0 0 2.31835 -1.6895099999999998 2.41785 2.41785 0 0 0 0.10149 -1.01092Z" stroke-width="1"></path><path id="Vector_16" fill="#6153bd" d="m154.46579 175.045375 -3.51633 -1.8904999999999998c-1.3989699999999998 4.593915 -3.06261 5.955075 -7.3918550000000005 8.790825000000002 2.174075 3.2516599999999998 1.66364 4.858585 1.417875 5.80284 -2.2885 2.15517 -3.4397149999999996 2.146215 -5.027735 6.2684999999999995h7.96a5.61777 5.61777 0 0 0 5.161065000000001 -3.129275c1.194 -2.587 2.189 -7.825675 3.3073799999999998 -10.90719a3.9551250000000002 3.9551250000000002 0 0 0 -1.9103999999999999 -4.9352Z" stroke-width="1"></path><path id="Vector_17" fill="#6153bd" d="M156.90354 55.139915a0.655705 0.655705 0 0 1 -0.6805800000000001 0.623865 0.65073 0.65073 0 0 1 -0.56317 -0.928335 0.653715 0.653715 0 0 1 1.24375 0.30447Z" stroke-width="1"></path><path id="Vector_18" fill="#6153bd" d="M45.50533 77.995065V47.997805l2.76013 -0.0029850000000000002v30.170389999999998c-1.6815499999999999 -0.30247999999999997 -2.49546 -0.32138500000000003 -2.76013 -0.17014500000000002Z" stroke-width="1"></path><path id="Vector_19" fill="#6153bd" d="M121.440745 57.411500000000004a2.59098 2.59098 0 0 0 1.8586600000000002 -2.798935 2.591975 2.591975 0 0 0 -2.46362 -2.285515 2.60093 2.60093 0 0 0 0.54725 -3.16609 2.5969499999999996 2.5969499999999996 0 0 0 -2.948185 -1.2765849999999999 2.601925 2.601925 0 0 0 -2.2288 -3.7083649999999997 2.6059050000000004 2.6059050000000004 0 0 0 -1.60792 0.456705 2.601925 2.601925 0 0 0 -4.8396799999999995 -1.592 2.70043 2.70043 0 0 0 -2.647695 -2.2089000000000003 2.7044099999999998 2.7044099999999998 0 0 0 -2.66461 2.189995 2.603915 2.603915 0 0 0 -3.0566400000000002 -1.194 2.6098850000000002 2.6098850000000002 0 0 0 -1.80095 2.74421 2.607895 2.607895 0 0 0 -3.875525 3.21385 2.6098850000000002 2.6098850000000002 0 0 0 -2.45765 4.423769999999999 2.5989400000000002 2.5989400000000002 0 0 0 -0.661675 5.08445 2.5969499999999996 2.5969499999999996 0 0 0 0.623865 5.085445 2.601925 2.601925 0 0 0 2.438745 4.423769999999999 2.587 2.587 0 0 0 2.53327 3.6815c-1.153205 -0.9263450000000001 -1.569115 -2.985 0.32138500000000003 -7.35305 3.36509 -7.76896 6.445609999999999 -2.34422 6.4078 0.8129149999999999 0.056715 0.5671499999999999 0.3781 0.6805800000000001 1.228825 -0.018904999999999998 1.77707 -1.47459 3.32728 1.6258299999999999 -0.056715 3.401905 -0.6427700000000001 0.341285 -1.077585 1.0945 -0.52934 5.273499999999999 0.03383 0.2985 0.08358 0.596005 0.15123999999999999 0.888535a2.6367499999999997 2.6367499999999997 0 0 0 3.799905 -1.909405 2.6088899999999997 2.6088899999999997 0 0 0 4.875500000000001 -1.5124 2.601925 2.601925 0 0 0 3.8934349999999998 -3.175045 2.6069 2.6069 0 0 0 2.476555 -4.404864999999999 2.603915 2.603915 0 0 0 0.68257 -5.076490000000001Z" stroke-width="1"></path></g><g id="outlines"><path id="Vector_20" stroke="#120071" d="M64.351625 83.96805a1.24773 1.24773 0 1 0 0 -2.49546 1.24773 1.24773 0 0 0 0 2.49546Z" stroke-width="1"></path><path id="Vector_21" stroke="#120071" d="M75.581195 93.49616999999999a1.24773 1.24773 0 1 1 -1.24773 -1.24773 1.25768 1.25768 0 0 1 1.24773 1.24773Z" stroke-width="1"></path><path id="Vector_22" stroke="#120071" d="M87.244585 84.42177000000001a1.24773 1.24773 0 1 1 -1.24773 -1.24773 1.25967 1.25967 0 0 1 1.24773 1.24773Z" stroke-width="1"></path><path id="Vector_23" stroke="#120071" d="M100.06118 95.083195a1.246735 1.246735 0 1 1 -1.24773 -1.246735 1.25768 1.25768 0 0 1 1.24773 1.246735Z" stroke-width="1"></path><path id="Vector_24" stroke="#120071" d="M110.949465 84.42177000000001a1.2537 1.2537 0 0 1 -0.77013 1.153205 1.2487249999999999 1.2487249999999999 0 1 1 -0.47759999999999997 -2.4009349999999996 1.260665 1.260665 0 0 1 1.24773 1.24773Z" stroke-width="1"></path><path id="Vector_25" stroke="#120071" d="M124.56007000000001 85.14016a1.2537 1.2537 0 0 1 -0.77013 1.153205 1.2487249999999999 1.2487249999999999 0 1 1 -0.47759999999999997 -2.4009349999999996 1.25967 1.25967 0 0 1 1.24773 1.24773Z" stroke-width="1"></path><path id="Vector_26" stroke="#120071" d="M138.37863000000002 84.42177000000001a1.24773 1.24773 0 1 0 0 -2.494465 1.24773 1.24773 0 0 0 0 2.494465Z" stroke-width="1"></path><path id="Vector_27" stroke="#120071" d="M132.952895 96.61449999999999a1.2537 1.2537 0 0 1 -0.77013 1.153205 1.2487249999999999 1.2487249999999999 0 1 1 -0.47759999999999997 -2.4009349999999996 1.236785 1.236785 0 0 1 1.24773 1.24773Z" stroke-width="1"></path><path id="Vector_28" stroke="#120071" d="M156.90354 55.139915a0.655705 0.655705 0 0 1 -0.6805800000000001 0.623865 0.65073 0.65073 0 0 1 -0.56317 -0.928335 0.653715 0.653715 0 0 1 1.24375 0.30447Z" stroke-width="1"></path><path id="Vector_29" stroke="#120071" stroke-linecap="round" stroke-linejoin="round" d="M45.486425000000004 77.995065V47.99482" stroke-width="1"></path><path id="Vector_30" stroke="#120071" stroke-linecap="round" stroke-linejoin="round" d="M45.486425000000004 84.55410499999999v-6.10532" stroke-width="1"></path><path id="Vector_31" stroke="#120071" stroke-linecap="round" stroke-linejoin="round" d="M45.486425000000004 194.025V91.813625" stroke-width="1"></path><path id="Vector_32" stroke="#120071" stroke-linecap="round" stroke-linejoin="round" d="M48.265460000000004 90.112175V194.025" stroke-width="1"></path><path id="Vector_33" stroke="#120071" stroke-linecap="round" stroke-linejoin="round" d="M48.265460000000004 80.301475v3.137235" stroke-width="1"></path><path id="Vector_34" stroke="#120071" stroke-linecap="round" stroke-linejoin="round" d="M48.265460000000004 47.99482v30.170389999999998" stroke-width="1"></path><path id="Vector_35" stroke="#120071" stroke-linecap="round" stroke-linejoin="round" d="M148.64305 84.95111A47.41175 47.41175 0 0 1 128.71917000000002 145.27" stroke-width="1"></path><path id="Vector_36" stroke="#120071" stroke-linecap="round" stroke-linejoin="round" d="M64.89986999999999 79.318415A47.391850000000005 47.391850000000005 0 0 1 90.76389999999999 58.99355m51.64647 15.642395a47.391850000000005 47.391850000000005 0 0 0 -19.186585 -14.40163" stroke-width="1"></path><path id="Vector_37" stroke="#120071" stroke-linecap="round" stroke-linejoin="round" d="M86.979915 147.786355A47.400805000000005 47.400805000000005 0 0 1 57.909000000000006 104.081975c0 -4.66058 0.6805800000000001 -9.297279999999999 2.01985 -13.761845" stroke-width="1"></path><path id="Vector_38" stroke="#120071" stroke-linecap="round" stroke-linejoin="round" d="M113.255875 150.79225000000002a32.108650000000004 32.108650000000004 0 0 1 -7.96 0.661675c-1.2935 0 -2.5939650000000003 -0.051739999999999994 -3.87453 -0.154225" stroke-width="1"></path><path id="Vector_39" stroke="#120071" stroke-linecap="round" stroke-linejoin="round" d="M150.325595 83.24966c-3.7053800000000003 3.7053800000000003 -8.605754999999998 9.07042 -13.66732 15.17972a7.7868699999999995 7.7868699999999995 0 0 1 -10.585804999999999 1.342255c-4.4426749999999995 -3.2317600000000004 -7.44857 -5.557075 -12.325065 -9.13012" stroke-width="1"></path><path id="Vector_40" stroke="#120071" stroke-linecap="round" stroke-linejoin="round" d="m101.41835999999999 72.94146 1.53429 -2.18701" stroke-width="1"></path><path id="Vector_41" stroke="#120071" stroke-linecap="round" stroke-linejoin="round" d="M141.55865 75.16528500000001a71.430055 71.430055 0 0 0 -11.12012 12.167855s-9.433595 -7.899305 -15.897115 -11.833535000000001c-6.67446 -4.062585 -8.24457 2.6467 -8.979875 -2.930275 -0.550235 -4.179 -0.11343 -4.9352 0.52934 -5.273499999999999 3.383 -1.78304 1.827815 -4.8854500000000005 0.056715 -3.4029 -1.053705 0.882565 -1.17211 0.4975 -1.216885 -0.327355 -0.17512 -3.184 -3.1571350000000002 -7.96 -6.400835 -0.466655 -4.577 10.566899999999999 4.422775000000001 7.65553 4.422775000000001 7.65553" stroke-width="1"></path><path id="Vector_42" stroke="#120071" stroke-linecap="round" stroke-linejoin="round" d="M101.47806 71.0629c0.11243500000000001 1.6198599999999999 -0.152235 4.229745 -1.75717 3.85065 -4.1193 -0.97311 -5.88244 -0.32636000000000004 -8.223675 1.4925 -4.6566 3.6198099999999998 -14.12104 8.978879999999998 -14.12104 8.978879999999998 -5.613790000000001 -3.383 -9.678365 -4.838685000000001 -14.914055000000001 -7.08838A17.668215 17.668215 0 0 0 57.909000000000006 89.431595c7.4625 3.1949449999999997 10.322130000000001 5.026739999999999 16.162779999999998 7.88239a8.69829 8.69829 0 0 0 8.33611 -0.359195c3.6705550000000002 -2.2248200000000002 7.12619 -4.271535 10.888285 -6.25656" stroke-width="1"></path><path id="Vector_43" stroke="#120071" stroke-linecap="round" stroke-linejoin="round" d="M145.67496500000001 75.197125c-2.2536750000000003 -1.127335 -4.26059 -0.82983 -4.530235 0.90346 -0.231835 1.4925 0.7810750000000001 3.25365 1.744235 4.408845a9.257480000000001 9.257480000000001 0 0 0 5.352105 3.29942 2.046715 2.046715 0 0 0 2.46362 -1.242755" stroke-width="1"></path><path id="Vector_44" stroke="#120071" stroke-linecap="round" stroke-linejoin="round" d="M92.12108 82.777035a49.153 49.153 0 0 0 4.707345 17.996565c5.771 1.531305 10.45347 1.17211 16.295115 -0.6049599999999999a28.040095 28.040095 0 0 1 1.682545 -12.90714" stroke-width="1"></path><path id="Vector_45" stroke="#120071" stroke-linecap="round" stroke-linejoin="round" d="M146.75255 83.4009a56.58366 56.58366 0 0 1 8.24258 -2.4755599999999998 31.86786 31.86786 0 0 1 7.617719999999999 -0.3781c3.744185 0.22089 4.34218 -0.625855 0.47262499999999996 -1.9472150000000001 -1.419865 -0.48556 -8.676400000000001 -1.5124 -10.283325000000001 -1.73926 -2.5710800000000003 -0.361185 -6.368 -0.7363 -8.885349999999999 -0.8129149999999999a4.7163 4.7163 0 0 0 -0.5711299999999999 0.03582" stroke-width="1"></path><path id="Vector_46" stroke="#120071" stroke-linecap="round" stroke-linejoin="round" d="M141.13876000000002 76.9135c0.05373 -0.03383 8.77789 -3.2834999999999996 12.249445 -4.875500000000001 4.028755 -1.8507 2.944205 -0.41989 1.909405 0.8129149999999999 -0.76018 0.90545 -4.518295 3.4029 -2.49546 4.00786" stroke-width="1"></path><path id="Vector_47" stroke="#120071" stroke-linecap="round" stroke-linejoin="round" d="M149.32363 82.4855c2.2885 -0.5482450000000001 6.8058 -0.07263499999999999 8.808735 0.04179 1.6258299999999999 0.09353 3.9889550000000003 0.62685 5.803835 0.796 0.41591 0.038805 0.86963 -0.5671499999999999 -1.55021 -1.55021 -0.908435 -0.367155 -2.50939 -1.03082 -3.26559 -1.26365" stroke-width="1"></path><path id="Vector_48" stroke="#120071" stroke-linecap="round" stroke-linejoin="round" d="M149.227115 82.52729c1.8825399999999999 0.006965 3.758115 0.21094 5.59787 0.60894 1.4925 0.34029000000000004 3.99393 1.2845449999999998 5.5948850000000006 1.720355 0.398 0.108455 0.9452499999999999 -0.41591 -1.266635 -1.7959749999999999a23.47205 23.47205 0 0 0 -0.850725 -0.5174" stroke-width="1"></path><path id="Vector_49" stroke="#120071" stroke-linecap="round" stroke-linejoin="round" d="M58.07616 87.74905a52.6753 52.6753 0 0 0 -9.224645 -0.5482450000000001c-2.5472 0.19502 -5.065545 0.6766000000000001 -7.505285 1.43678 -3.590955 1.11639 -4.378 0.40993999999999997 -0.9263450000000001 -1.791a129.27637 129.27637 0 0 1 18.034375 -6.993855 4.58695 4.58695 0 0 1 2.665605 0.07561999999999999" stroke-width="1"></path><path id="Vector_50" stroke="#120071" stroke-linecap="round" stroke-linejoin="round" d="M50.07835 82.72032c1.815875 -1.077585 -2.47357 -2.587 -3.419815 -3.2834999999999996 -1.2845449999999998 -0.94724 -2.701425 -2.0696 1.66364 -1.24773A85.57597 85.57597 0 0 0 59.401500000000006 79.6995" stroke-width="1"></path><path id="Vector_51" stroke="#120071" stroke-linecap="round" stroke-linejoin="round" d="M44.71132 87.78685999999999c-0.796 0.49152999999999997 -2.3800399999999997 1.6477199999999999 -2.83575 1.99 -2.0895 1.545235 -1.53031 2.02582 -1.1342999999999999 1.8904999999999998 1.5721 -0.5373 3.9889550000000003 -1.682545 5.444640000000001 -2.136265 2.363125 -0.737295 6.89933 -2.30641 9.054499999999999 -2.07955" stroke-width="1"></path><path id="Vector_52" stroke="#120071" stroke-linecap="round" stroke-linejoin="round" d="M46.053574999999995 89.56393c-0.32138500000000003 0.32138500000000003 -0.5671499999999999 0.586055 -0.71839 0.71839 -1.81488 1.8526900000000002 -1.175095 2.2447199999999996 -0.8129149999999999 2.04174 1.44474 -0.8129149999999999 3.6496600000000003 -2.30243 5.02873 -2.985a31.650949999999998 31.650949999999998 0 0 1 5.23569 -1.92831" stroke-width="1"></path><path id="Vector_53" stroke="#120071" stroke-linecap="round" stroke-linejoin="round" d="M94.54092 191.18925000000002a27.739605 27.739605 0 0 0 -1.43678 -6.4675 22.454165 22.454165 0 0 1 -12.34397 0c-5.34912 1.55021 -11.455435 6.29437 -14.65038 9.28136 10.736049999999999 0 17.845325 -0.094525 26.01129 -0.11343 0.34228 0.000995 0.6805800000000001 -0.070645 0.99301 -0.21094a2.418845 2.418845 0 0 0 1.326335 -1.47857c0.104475 -0.32636000000000004 0.1393 -0.6706300000000001 0.0995 -1.01092v0Z" stroke-width="1"></path><path id="Vector_54" stroke="#120071" stroke-linecap="round" stroke-linejoin="round" d="M99.56965 155.13642c0.124375 5.278474999999999 -4.08547 15.74488 -6.4675 29.60722" stroke-width="1"></path><path id="Vector_55" stroke="#120071" stroke-linecap="round" stroke-linejoin="round" d="m80.76017 184.72473499999998 6.14512 -31.745475000000003" stroke-width="1"></path><path id="Vector_56" stroke="#120071" stroke-linecap="round" stroke-linejoin="round" d="m107.659 131.77580999999998 -7.42867 23.25116a21.06216 21.06216 0 0 1 -14.23447 -2.53327l10.832565 -51.7002" stroke-width="1"></path><path id="Vector_57" stroke="#120071" stroke-linecap="round" stroke-linejoin="round" d="m154.484695 175.06428 -3.51633 -1.8904999999999998c-1.3989699999999998 4.5929199999999994 -3.0845000000000002 5.95408 -7.410760000000001 8.78983 2.174075 3.2516599999999998 1.66364 4.858585 1.417875 5.80284 -2.2885 2.15517 -3.4397149999999996 2.12731 -5.027735 6.248600000000001h7.96a5.61777 5.61777 0 0 0 5.161065000000001 -3.129275c1.194 -2.587 2.189 -7.825675 3.3073799999999998 -10.90719a3.933235 3.933235 0 0 0 -1.891495 -4.914305v0Z" stroke-width="1"></path><path id="Vector_58" stroke="#120071" stroke-linecap="round" stroke-linejoin="round" d="M143.57651 181.96460499999998 120.797975 157.409" stroke-width="1"></path><path id="Vector_59" stroke="#120071" stroke-linecap="round" stroke-linejoin="round" d="M130.7032 149.63904499999998a55.49911 55.49911 0 0 1 8.639585 8.904255c3.475535 4.765054999999999 11.62558 14.6265 11.62558 14.6265" stroke-width="1"></path><path id="Vector_60" stroke="#120071" stroke-linecap="round" stroke-linejoin="round" d="m102.95264999999999 113.854865 8.6963 33.176285a14.018555000000001 14.018555000000001 0 0 0 3.8944300000000003 6.59685l4.3332250000000005 4.1252699999999995a20.76565 20.76565 0 0 0 11.166885 -8.643564999999999l-3.91234 -6.4675 -2.476555 -25.217280000000002c-0.9094300000000001 -9.3928 -6.516255 -15.869254999999999 -11.531055 -17.25927" stroke-width="1"></path><path id="Vector_61" stroke="#120071" stroke-linecap="round" stroke-linejoin="round" d="M109.701735 74.13844499999999a48.558985 48.558985 0 0 0 -7.50429 13.28922c-2.514365 -4.140194999999999 -4.975 -12.935 -4.975 -12.935" stroke-width="1"></path><path id="Vector_62" stroke="#120071" stroke-linecap="round" stroke-linejoin="round" d="M26.05308 194.025h150.35942500000002" stroke-width="1"></path><path id="Vector_63" stroke="#120071" stroke-linecap="round" stroke-linejoin="round" d="M158.434845 38.33536c-7.485385 -1.417875 -14.6265 2.985 -15.92 9.8306 -0.43979 2.3979500000000002 -0.12935 4.872515 0.88953 7.087385l-3.232755 5.2934 6.12522 -1.24773a14.6066 14.6066 0 0 0 7.4475750000000005 3.81881c7.485385 1.417875 14.6265 -2.985 15.92 -9.829604999999999 1.30345 -6.84361 -3.724285 -13.534984999999999 -11.229569999999999 -14.952860000000001Z" stroke-width="1"></path><path id="Vector_64" stroke="#120071" stroke-linecap="round" stroke-linejoin="round" d="M156.241865 52.26735c0.018904999999999998 -0.850725 0.345265 -1.471605 1.3989699999999998 -2.87356 2.273575 -3.0238050000000003 0.8955 -5.107335 -1.039775 -5.198874999999999a2.35417 2.35417 0 0 0 -2.4377500000000003 2.6865" stroke-width="1"></path><path id="Vector_65" stroke="#120071" stroke-linecap="round" stroke-linejoin="round" d="M148.03809 143.89292h4.08348" stroke-width="1"></path><path id="Vector_66" stroke="#120071" stroke-linecap="round" stroke-linejoin="round" d="M159.36119 143.874015h4.08348" stroke-width="1"></path><path id="Vector_67" stroke="#120071" stroke-linecap="round" stroke-linejoin="round" d="M155.74138 136.17968v4.08348" stroke-width="1"></path><path id="Vector_68" stroke="#120071" stroke-linecap="round" stroke-linejoin="round" d="M155.760285 147.503775v4.082485" stroke-width="1"></path><path id="Vector_69" stroke="#120071" stroke-linecap="round" stroke-linejoin="round" d="m150.287785 138.44828 2.892465 2.87356" stroke-width="1"></path><path id="Vector_70" stroke="#120071" stroke-linecap="round" stroke-linejoin="round" d="m158.321415 146.445095 2.892465 2.872565" stroke-width="1"></path><path id="Vector_71" stroke="#120071" stroke-linecap="round" stroke-linejoin="round" d="m161.194975 138.429375 -2.892465 2.892465" stroke-width="1"></path><path id="Vector_72" stroke="#120071" stroke-linecap="round" stroke-linejoin="round" d="m153.199155 146.445095 -2.892465 2.89147" stroke-width="1"></path><path id="Vector_73" stroke="#120071" stroke-linecap="round" stroke-linejoin="round" d="M26.128700000000002 47.99482a3.5422000000000002 3.5422000000000002 0 0 1 -3.06261 -5.3093200000000005L43.80388 6.747095a3.5491650000000003 3.5491650000000003 0 0 1 6.14313 0L70.68480000000001 42.6855a3.541205 3.541205 0 0 1 -3.06261 5.312305l-41.49349 -0.0029850000000000002Z" stroke-width="1"></path><path id="Vector_74" stroke="#120071" stroke-linecap="round" stroke-linejoin="round" d="M76.37420999999999 27.220215a1.8964699999999999 1.8964699999999999 0 1 1 -3.77901 0.339295 1.8964699999999999 1.8964699999999999 0 0 1 3.77901 -0.339295v0Z" stroke-width="1"></path><path id="Vector_75" stroke="#120071" stroke-linecap="round" stroke-linejoin="round" d="M60.996485 164.87548v7.63762" stroke-width="1"></path><path id="Vector_76" stroke="#120071" stroke-linecap="round" stroke-linejoin="round" d="M64.82425 168.69429h-7.65553" stroke-width="1"></path><path id="Vector_77" stroke="#120071" stroke-linecap="round" stroke-linejoin="round" d="M105.71278 73.457865a2.601925 2.601925 0 0 0 3.799905 -1.871595 2.6088899999999997 2.6088899999999997 0 0 0 4.875500000000001 -1.5124 2.601925 2.601925 0 0 0 3.8934349999999998 -3.175045 2.59496 2.59496 0 0 0 3.037735 -1.38106 2.62481 2.62481 0 0 0 -0.5611799999999999 -3.0238050000000003 2.587 2.587 0 0 0 2.514365 -2.627795 2.6268000000000002 2.6268000000000002 0 0 0 -1.833785 -2.45765 2.631775 2.631775 0 0 0 1.8904999999999998 -2.53327 2.587 2.587 0 0 0 -2.49546 -2.55118 2.599935 2.599935 0 0 0 0.6766000000000001 -2.88152 2.603915 2.603915 0 0 0 -2.4536700000000002 -1.6556799999999998 2.4676 2.4676 0 0 0 -0.623865 0.094525 2.603915 2.603915 0 0 0 -3.8367199999999997 -3.2516599999999998 2.60292 2.60292 0 0 0 -4.8396799999999995 -1.592c-0.42188 -2.906395 -4.85759 -2.974055 -5.312305 -0.018904999999999998a2.603915 2.603915 0 0 0 -4.44367 -0.14029499999999998 2.6098850000000002 2.6098850000000002 0 0 0 -0.41391999999999995 1.6905050000000001 2.6088899999999997 2.6088899999999997 0 0 0 -3.875525 3.21385 2.6069 2.6069 0 0 0 -2.45765 4.423769999999999 2.5969499999999996 2.5969499999999996 0 0 0 -0.661675 5.08445 2.59496 2.59496 0 0 0 0.623865 5.085445 2.60093 2.60093 0 0 0 2.438745 4.423769999999999 2.587 2.587 0 0 0 2.60491 3.6815" stroke-width="1"></path><path id="Vector_78" stroke="#120071" stroke-linecap="round" stroke-linejoin="round" d="m127.01772000000001 153.77924 -4.9342049999999995 -5.879455" stroke-width="1"></path><path id="Vector_79" stroke="#120071" stroke-linecap="round" stroke-linejoin="round" d="m94.80559 155.121495 2.0228349999999997 -7.33514" stroke-width="1"></path><path id="Vector_80" stroke="#120071" stroke-linecap="round" stroke-linejoin="round" d="M109.701735 106.74758c2.703415 3.26957 5.70931 4.649635 8.94107 4.611825" stroke-width="1"></path><path id="Ellipse 1" stroke="#120071" d="M45.56105 37.518465a1.3134000000000001 1.3134000000000001 0 1 0 2.6268000000000002 0 1.3134000000000001 1.3134000000000001 0 1 0 -2.6268000000000002 0" stroke-width="1"></path><path id="Vector 1" stroke="#120071" stroke-linecap="round" d="M46.855545 18.799529999999997V31.5216" stroke-width="1"></path></g></g></svg>